<svg width="38" height="38" viewBox="0 0 38 38" fill="none" xmlns="http://www.w3.org/2000/svg">
<circle cx="19" cy="19" r="18" fill="#55988D" fill-opacity="0.25" stroke="#55988D" stroke-width="2"/>
<path d="M26.9611 12.3333C26.8854 12.3255 26.809 12.3255 26.7333 12.3333H11.1777C11.078 12.3349 10.979 12.3498 10.8833 12.3778L18.9111 20.3722L26.9611 12.3333Z" fill="#55988D"/>
<path d="M27.7834 13.1056L19.6945 21.1611C19.4863 21.3681 19.2047 21.4842 18.9112 21.4842C18.6176 21.4842 18.336 21.3681 18.1278 21.1611L10.1112 13.1667C10.0865 13.2572 10.0734 13.3506 10.0723 13.4444V24.5556C10.0723 24.8502 10.1893 25.1329 10.3977 25.3412C10.6061 25.5496 10.8887 25.6667 11.1834 25.6667H26.7389C27.0336 25.6667 27.3162 25.5496 27.5246 25.3412C27.733 25.1329 27.85 24.8502 27.85 24.5556V13.4444C27.8456 13.3287 27.8231 13.2144 27.7834 13.1056ZM11.9445 24.5556H11.1723V23.7611L15.2112 19.7556L15.9945 20.5389L11.9445 24.5556ZM26.7278 24.5556H25.95L21.9 20.5389L22.6834 19.7556L26.7223 23.7611L26.7278 24.5556Z" fill="#55988D"/>
</svg>
