<svg width="38" height="38" viewBox="0 0 38 38" fill="none" xmlns="http://www.w3.org/2000/svg">
<circle cx="19" cy="19" r="18" fill="#55988D" fill-opacity="0.25" stroke="#55988D" stroke-width="2"/>
<path d="M15.4767 11.0325L16.3733 10.7458C17.215 10.4775 18.1125 10.9117 18.4733 11.76L19.1892 13.45C19.5008 14.1858 19.3283 15.0517 18.7608 15.59L17.1825 17.0883C17.2792 17.985 17.5808 18.8675 18.0858 19.7358C18.5656 20.576 19.2092 21.3114 19.9783 21.8983L21.8742 21.265C22.5933 21.0258 23.3758 21.3017 23.8158 21.9492L24.8433 23.4575C25.3558 24.2108 25.2642 25.2492 24.6283 25.8875L23.9467 26.5717C23.2683 27.2525 22.2992 27.5 21.4033 27.22C19.2875 26.56 17.3425 24.6008 15.5675 21.3425C13.79 18.0792 13.1625 15.3092 13.6858 13.0358C13.9058 12.0792 14.5867 11.3167 15.4767 11.0325Z" fill="#55988D"/>
</svg>
