<svg width="60" height="60" viewBox="0 0 60 60" fill="none" xmlns="http://www.w3.org/2000/svg">
<circle cx="30" cy="30" r="30" fill="#F46528"/>
<path d="M32.9213 21.544C32.9213 20.6925 32.5831 19.8759 31.981 19.2738C31.3788 18.6716 30.5622 18.3334 29.7107 18.3334C28.8591 18.3334 28.0425 18.6716 27.4404 19.2738C26.8383 19.8759 26.5 20.6925 26.5 21.544V38.4584C26.4997 38.9719 26.6226 39.4781 26.8584 39.9343C27.0942 40.3905 27.436 40.7835 27.8551 41.0803C28.2742 41.3771 28.7583 41.5691 29.267 41.6401C29.7756 41.711 30.2938 41.659 30.7782 41.4882C30.0037 40.6273 29.4366 39.6005 29.1205 38.4865C28.8044 37.3724 28.7476 36.2008 28.9545 35.0615C29.1614 33.9221 29.6265 32.8452 30.3141 31.9135C31.0018 30.9817 31.8936 30.2198 32.9213 29.6862V21.5417V21.544Z" fill="white"/>
<path d="M41.088 30.4434C40.1909 29.7438 39.1483 29.2543 38.037 29.011C36.9257 28.7677 35.774 28.7768 34.6666 29.0375V27.3762C34.6666 26.5247 35.0049 25.708 35.607 25.1059C36.2091 24.5038 37.0258 24.1655 37.8773 24.1655C38.7288 24.1655 39.5455 24.5038 40.1476 25.1059C40.7497 25.708 41.088 26.5247 41.088 27.3762V30.4422V30.4434Z" fill="white"/>
<path d="M21.544 30C22.3955 30 23.2121 30.3383 23.8143 30.9404C24.4164 31.5425 24.7546 32.3591 24.7546 33.2107V38.4583C24.7546 39.3099 24.4164 40.1265 23.8143 40.7286C23.2121 41.3307 22.3955 41.669 21.544 41.669C20.6925 41.669 19.8758 41.3307 19.2737 40.7286C18.6716 40.1265 18.3333 39.3099 18.3333 38.4583V33.2107C18.3333 32.3591 18.6716 31.5425 19.2737 30.9404C19.8758 30.3383 20.6925 30 21.544 30Z" fill="white"/>
<path d="M42.8333 36.4167C42.8333 34.7149 42.1573 33.0828 40.9539 31.8794C39.7506 30.676 38.1185 30 36.4167 30C34.7149 30 33.0828 30.676 31.8794 31.8794C30.676 33.0828 30 34.7149 30 36.4167C30 38.1185 30.676 39.7506 31.8794 40.9539C33.0828 42.1573 34.7149 42.8333 36.4167 42.8333C38.1185 42.8333 39.7506 42.1573 40.9539 40.9539C42.1573 39.7506 42.8333 38.1185 42.8333 36.4167ZM37 37L37.0012 39.9213C37.0012 40.076 36.9397 40.2244 36.8303 40.3338C36.7209 40.4432 36.5725 40.5047 36.4178 40.5047C36.2631 40.5047 36.1147 40.4432 36.0054 40.3338C35.896 40.2244 35.8345 40.076 35.8345 39.9213V37H32.912C32.7573 37 32.6089 36.9385 32.4995 36.8291C32.3901 36.7197 32.3287 36.5714 32.3287 36.4167C32.3287 36.262 32.3901 36.1136 32.4995 36.0042C32.6089 35.8948 32.7573 35.8333 32.912 35.8333H35.8333V32.9167C35.8333 32.762 35.8948 32.6136 36.0042 32.5042C36.1136 32.3948 36.262 32.3333 36.4167 32.3333C36.5714 32.3333 36.7197 32.3948 36.8291 32.5042C36.9385 32.6136 37 32.762 37 32.9167V35.8333H39.9202C40.0749 35.8333 40.2232 35.8948 40.3326 36.0042C40.442 36.1136 40.5035 36.262 40.5035 36.4167C40.5035 36.5714 40.442 36.7197 40.3326 36.8291C40.2232 36.9385 40.0749 37 39.9202 37H37.0012H37Z" fill="white"/>
</svg>
