<svg width="60" height="60" viewBox="0 0 60 60" fill="none" xmlns="http://www.w3.org/2000/svg">
<circle cx="30" cy="30" r="30" fill="#F46528"/>
<path d="M28.6 18.8C27.1148 18.8 25.6904 19.39 24.6402 20.4402C23.59 21.4904 23 22.9148 23 24.4C23 25.8852 23.59 27.3096 24.6402 28.3598C25.6904 29.41 27.1148 30 28.6 30C30.0852 30 31.5096 29.41 32.5598 28.3598C33.61 27.3096 34.2 25.8852 34.2 24.4C34.2 22.9148 33.61 21.4904 32.5598 20.4402C31.5096 19.39 30.0852 18.8 28.6 18.8Z" fill="white"/>
<path d="M21.6126 31.4C21.2439 31.3985 20.8785 31.4698 20.5374 31.6099C20.1963 31.7499 19.8863 31.9559 19.625 32.216C19.3636 32.4762 19.1563 32.7853 19.0147 33.1258C18.8731 33.4662 18.8002 33.8313 18.8 34.2C18.8 36.5674 19.9662 38.3524 21.789 39.5158C23.5838 40.6596 26.003 41.2 28.6 41.2C29.174 41.2 29.7424 41.1734 30.294 41.1202C29.1949 39.7544 28.597 38.0531 28.6 36.3C28.6 34.438 29.2608 32.73 30.3598 31.4H21.614H21.6126Z" fill="white"/>
<path d="M36.3 42.6C37.9709 42.6 39.5733 41.9363 40.7548 40.7548C41.9363 39.5733 42.6 37.9709 42.6 36.3C42.6 34.6291 41.9363 33.0267 40.7548 31.8452C39.5733 30.6637 37.9709 30 36.3 30C34.6291 30 33.0267 30.6637 31.8452 31.8452C30.6637 33.0267 30 34.6291 30 36.3C30 37.9709 30.6637 39.5733 31.8452 40.7548C33.0267 41.9363 34.6291 42.6 36.3 42.6ZM36.3 32.8C36.4857 32.8 36.6637 32.8737 36.795 33.005C36.9263 33.1363 37 33.3143 37 33.5V35.6H39.1C39.2857 35.6 39.4637 35.6737 39.595 35.805C39.7263 35.9363 39.8 36.1143 39.8 36.3C39.8 36.4857 39.7263 36.6637 39.595 36.795C39.4637 36.9263 39.2857 37 39.1 37H37V39.1C37 39.2857 36.9263 39.4637 36.795 39.595C36.6637 39.7263 36.4857 39.8 36.3 39.8C36.1143 39.8 35.9363 39.7263 35.805 39.595C35.6737 39.4637 35.6 39.2857 35.6 39.1V37H33.5C33.3143 37 33.1363 36.9263 33.005 36.795C32.8737 36.6637 32.8 36.4857 32.8 36.3C32.8 36.1143 32.8737 35.9363 33.005 35.805C33.1363 35.6737 33.3143 35.6 33.5 35.6H35.6V33.5C35.6 33.3143 35.6737 33.1363 35.805 33.005C35.9363 32.8737 36.1143 32.8 36.3 32.8Z" fill="white"/>
</svg>
